<svg xmlns="http://www.w3.org/2000/svg">
	<symbol viewBox="0 0 512 512" id="board">
		<path d="M255.9.2h-64v64h64zM0 64.17v64h64v-64zM128 .2H64v64h64zm64 255.9v64h64v-64zM0 192.12v64h64v-64zM383.85.2h-64v64h64zm128 0h-64v64h64zM128 256.1H64v64h64zM511.8 448v-64h-64v64zm0-128v-64h-64v64zM383.85 512h64v-64h-64zm128-319.88v-64h-64v64zM128 512h64v-64h-64zM0 512h64v-64H0zm255.9 0h64v-64h-64zM0 320.07v64h64v-64zm319.88-191.92v-64h-64v64zm-64 128h64v-64h-64zm-64 128v64h64v-64zm128-64h64v-64h-64zm0-127.95h64v-64h-64zm0 191.93v64h64v-64zM64 384.05v64h64v-64zm128-255.9v-64h-64v64zm191.92 255.9h64v-64h-64zm-128-191.93v-64h-64v64zm128-127.95v64h64v-64zm-128 255.9v64h64v-64zm-64-127.95H128v64h64zm191.92 64h64v-64h-64zM128 128.15H64v64h64zm0 191.92v64h64v-64z"/>
	</symbol>
	<symbol viewBox="0 0 97.16 97.16" id="clock">
		<path d="M48.58,0C21.793,0,0,21.793,0,48.58s21.793,48.58,48.58,48.58s48.58-21.793,48.58-48.58S75.367,0,48.58,0z M48.58,86.823 c-21.087,0-38.244-17.155-38.244-38.243S27.493,10.337,48.58,10.337S86.824,27.492,86.824,48.58S69.667,86.823,48.58,86.823z"/>
		<path d="M73.898,47.08H52.066V20.83c0-2.209-1.791-4-4-4c-2.209,0-4,1.791-4,4v30.25c0,2.209,1.791,4,4,4h25.832 c2.209,0,4-1.791,4-4S76.107,47.08,73.898,47.08z"/>
	</symbol>
	<symbol viewBox="-91 0 511 511.99948" id="flash">
		<path d="m315.5 211h-124.214844l107.253906-188.585938c2.640626-4.640624 2.609376-10.339843-.074218-14.957031-2.683594-4.617187-7.625-7.457031-12.964844-7.457031h-180c-6.460938 0-12.199219 4.140625-14.234375 10.273438l-90 270.996093c-1.519531 4.574219-.75 9.597657 2.070313 13.507813 2.820312 3.90625 7.34375 6.222656 12.164062 6.222656h127.292969l-81.089844 190.113281c-2.886719 6.769531-.441406 14.628907 5.777344 18.5625 6.21875 3.933594 14.371093 2.773438 19.25-2.730469l240-271c8.546875-9.65625 1.679687-24.945312-11.230469-24.945312zm-189.921875 206.832031 53.71875-125.945312c4.210937-9.875-3.039063-20.886719-13.796875-20.886719h-129.214844l80.039063-241h143.386719l-107.25 188.582031c-5.671876 9.972657 1.535156 22.417969 13.039062 22.417969h116.679688zm0 0"/>
	</symbol>
	<symbol viewBox="0 0 384 512" id="file-excel">
		<path fill="#19223f" d="M369.9 97.9L286 14C277 5 264.8-.1 252.1-.1H48C21.5 0 0 21.5 0 48v416c0 26.5 21.5 48 48 48h288c26.5 0 48-21.5 48-48V131.9c0-12.7-5.1-25-14.1-34zM332.1 128H256V51.9l76.1 76.1zM48 464V48h160v104c0 13.3 10.7 24 24 24h104v288H48zm212-240h-28.8c-4.4 0-8.4 2.4-10.5 6.3-18 33.1-22.2 42.4-28.6 57.7-13.9-29.1-6.9-17.3-28.6-57.7-2.1-3.9-6.2-6.3-10.6-6.3H124c-9.3 0-15 10-10.4 18l46.3 78-46.3 78c-4.7 8 1.1 18 10.4 18h28.9c4.4 0 8.4-2.4 10.5-6.3 21.7-40 23-45 28.6-57.7 14.9 30.2 5.9 15.9 28.6 57.7 2.1 3.9 6.2 6.3 10.6 6.3H260c9.3 0 15-10 10.4-18L224 320c.7-1.1 30.3-50.5 46.3-78 4.7-8-1.1-18-10.3-18z"/>
	</symbol>
</svg>